<?xml version="1.0" encoding="UTF-8"?><svg xmlns="http://www.w3.org/2000/svg" width="373.74" height="333.79" viewBox="0 0 373.74 333.79"><defs><style>.cls-1{isolation:isolate;}.cls-2{fill:none;}.cls-3{mix-blend-mode:multiply;}</style></defs><g class="cls-1"><g id="Layer_1"><g><g class="cls-3"><path d="M166.58,309.36c-1.51-2.3-.88-5.38,1.42-6.9,2.3-1.51,5.39-.88,6.9,1.42,1.51,2.3,.88,5.39-1.42,6.9-2.3,1.51-5.39,.88-6.9-1.42Z"/></g><g class="cls-3"><path d="M226.36,294.51c-1.51-2.3-.88-5.38,1.42-6.9,2.3-1.51,5.39-.88,6.9,1.42,1.51,2.3,.88,5.38-1.42,6.9-2.3,1.51-5.38,.88-6.9-1.42Z"/></g><g class="cls-3"><path d="M231.51,321.59c-1.2-1.82-.69-4.27,1.13-5.47,1.82-1.2,4.27-.69,5.47,1.13,1.2,1.82,.69,4.27-1.13,5.47-1.82,1.2-4.27,.69-5.47-1.13Z"/></g><g class="cls-3"><path d="M247.27,330.43c-1.2-1.82-.69-4.27,1.13-5.47,1.82-1.2,4.27-.69,5.47,1.13,1.2,1.82,.69,4.27-1.13,5.47-1.82,1.2-4.27,.69-5.47-1.13Z"/></g><g class="cls-3"><path d="M157.68,15.13c-1.2-1.82-.69-4.27,1.13-5.47,1.82-1.2,4.27-.69,5.47,1.13,1.2,1.82,.69,4.27-1.13,5.47-1.82,1.2-4.27,.69-5.47-1.13Z"/></g><g class="cls-3"><path d="M106.57,44.15c-1.2-1.82-.69-4.27,1.13-5.47,1.82-1.2,4.27-.69,5.47,1.13s.69,4.27-1.13,5.47c-1.82,1.2-4.27,.69-5.47-1.13Z"/></g><g class="cls-3"><path d="M56.49,106.93c-1.2-1.82-.69-4.27,1.13-5.47,1.82-1.2,4.27-.69,5.47,1.13,1.2,1.82,.69,4.27-1.13,5.47-1.82,1.2-4.27,.69-5.47-1.13Z"/></g><g class="cls-3"><path d="M183.48,332.02c-1.2-1.82-.69-4.27,1.13-5.47s4.27-.69,5.47,1.13c1.2,1.82,.69,4.27-1.13,5.47-1.82,1.2-4.27,.69-5.47-1.13Z"/></g><g class="cls-3"><path d="M182.26,25.45c-1.2-1.82-.69-4.27,1.13-5.47,1.82-1.2,4.27-.69,5.47,1.13s.69,4.27-1.13,5.47c-1.82,1.2-4.27,.69-5.47-1.13Z"/></g><g class="cls-3"><path d="M179.54,83.55c-1.51-2.3-.88-5.38,1.42-6.9,2.3-1.51,5.39-.88,6.9,1.42,1.51,2.3,.88,5.39-1.42,6.9-2.3,1.51-5.39,.88-6.9-1.42Z"/></g><g class="cls-3"><path d="M134.65,43.55c-1.51-2.3-.88-5.38,1.42-6.9,2.3-1.51,5.39-.88,6.9,1.42,1.51,2.3,.88,5.39-1.42,6.9-2.3,1.51-5.39,.88-6.9-1.42Z"/></g><g class="cls-3"><path d="M97.74,85.07c-1.51-2.3-.88-5.39,1.42-6.9,2.3-1.51,5.39-.88,6.9,1.42,1.51,2.3,.88,5.39-1.42,6.9-2.3,1.51-5.39,.88-6.9-1.42Z"/></g><g><g class="cls-3"><path d="M349.31,209.91l-17.95,67.93-.18,.06-43.48,16.14,.71-.97,60.89-83.16Zm-18.56,67.38l16.88-63.86-57.91,79.09,41.04-15.23Z"/><path d="M218.05,307.74l.89-.19,71.04-14.9-39.65,35.07-32.28-19.98Zm69.4-13.82l-67.47,14.16,30.28,18.74,37.2-32.9Z"/><path d="M109.23,40.95l43.4-5.17-63.11,48.15,19.71-42.98Zm40.85-4.14l-40.36,4.81-18.33,39.97,58.69-44.78Z"/><path d="M160.41,12.93l.34,.15,34.11,14.59-44.1,9.11,9.65-23.86Zm32.04,14.5l-31.65-13.54-8.86,21.91,40.51-8.37Z"/><path d="M213.15,4.95l34.79,18.06-55.16,4.99,20.37-23.05Zm32.25,17.57L213.32,5.85l-18.78,21.26,50.87-4.6Z"/><path d="M245.6,22.44l32.97-1.21,15.16,35.85-48.13-34.64Zm32.5-.46l-30.36,1.11,44.31,31.89-13.96-33Z"/><path d="M291.91,55.43l40.7,9.1,.02,.26,4.02,43.15-44.75-52.52Zm40.03,9.7l-38.07-8.52,41.86,49.12-3.79-40.6Z"/><path d="M335.34,105.86l32.65,21.24-.03,.23-5.35,38.22-27.27-59.69Zm31.86,21.6l-30.16-19.63,25.19,55.16,4.97-35.53Z"/><path d="M362.46,162.87l8.11,33.52-22.74,16.19,14.63-49.71Zm7.29,33.22l-7.35-30.42-13.28,45.1,20.63-14.69Z"/><path d="M270.54,269.48l18.82,24.05-71.9,15.08,53.08-39.13Zm17.53,23.58l-17.67-22.57-49.83,36.74,67.5-14.16Z"/><path d="M305.26,203.11l.26,.05,43.82,8.31-.66,.49-79.29,59.27,35.86-68.12Zm42.33,8.77l-41.94-7.96-34.12,64.81,76.06-56.85Z"/><path d="M336.13,105.84l26.75,58.56-58.09,40.02,31.34-98.58Zm25.83,58.31l-25.71-56.3-30.13,94.77,55.84-38.47Z"/><path d="M292.33,54.8l44.47,52.19-33.97,13.44-.07-.45-10.43-65.19Zm43.26,51.89l-42.14-49.45,9.95,62.19,32.18-12.74Z"/><path d="M303.44,118.35l2.4,85.78-33.21-17.95,.14-.31,30.67-67.52Zm1.64,84.54l-2.28-81.38-29.23,64.35,31.51,17.03Z"/><path d="M202.67,275.72l.53-.05,68.53-6.17-52.85,38.96-.19-.39-16.01-32.36Zm66.54-5.26l-65.42,5.89,15.35,31.02,50.06-36.91Z"/><path d="M246.27,22.02l47.35,34.07-.58,.26-43.92,19.55-.03-.53-2.82-53.35Zm45.9,33.93l-45.09-32.45,2.72,51.31,42.38-18.86Z"/><path d="M243.96,24.24c-.81-1.23-.47-2.88,.76-3.68s2.88-.47,3.68,.76c.81,1.23,.47,2.88-.76,3.68s-2.88,.47-3.68-.76Z"/><path d="M88.47,83.89c-.81-1.23-.47-2.88,.76-3.68,1.23-.81,2.88-.47,3.68,.76,.81,1.23,.47,2.88-.76,3.68s-2.88,.47-3.68-.76Z"/><path d="M301.29,121.13c-.81-1.23-.47-2.88,.76-3.68,1.23-.81,2.88-.47,3.68,.76,.81,1.23,.47,2.88-.76,3.68-1.23,.81-2.88,.47-3.68-.76Z"/><path d="M345.76,213.58c-.81-1.23-.47-2.88,.76-3.68,1.23-.81,2.88-.47,3.68,.76,.81,1.23,.47,2.88-.76,3.68-1.23,.81-2.88,.47-3.68-.76Z"/><path d="M216.57,309.07c-.81-1.23-.47-2.88,.76-3.68s2.88-.47,3.68,.76c.81,1.23,.47,2.88-.76,3.68s-2.88,.47-3.68-.76Z"/><path d="M285.79,295.29c-.81-1.23-.47-2.88,.76-3.68,1.23-.81,2.88-.47,3.68,.76,.81,1.23,.47,2.88-.76,3.68-1.23,.81-2.88,.47-3.68-.76Z"/><path d="M334.29,107.86c-.81-1.23-.47-2.88,.76-3.68s2.88-.47,3.68,.76c.81,1.23,.47,2.88-.76,3.68s-2.88,.47-3.68-.76Z"/><path d="M360.08,165.9c-.81-1.23-.47-2.88,.76-3.68,1.23-.81,2.88-.47,3.68,.76s.47,2.88-.76,3.68-2.88,.47-3.68-.76Z"/><path d="M246.52,76.42c-.81-1.23-.47-2.88,.76-3.68,1.23-.81,2.88-.47,3.68,.76,.81,1.23,.47,2.88-.76,3.68s-2.88,.47-3.68-.76Z"/><path d="M291.07,57.31c-.81-1.23-.47-2.88,.76-3.68,1.23-.81,2.88-.47,3.68,.76,.81,1.23,.47,2.88-.76,3.68-1.23,.81-2.88,.47-3.68-.76Z"/><path d="M148.92,39.12c-.81-1.23-.47-2.88,.76-3.68,1.23-.81,2.88-.47,3.68,.76s.47,2.88-.76,3.68c-1.23,.81-2.88,.47-3.68-.76Z"/><path d="M200.68,279.29c-1.2-1.82-.69-4.27,1.13-5.47,1.82-1.2,4.27-.69,5.47,1.13,1.2,1.82,.69,4.27-1.13,5.47-1.82,1.2-4.27,.69-5.47-1.13Z"/><path d="M302.15,205.52c-1.2-1.82-.69-4.27,1.13-5.47,1.82-1.2,4.27-.69,5.47,1.13,1.2,1.82,.69,4.27-1.13,5.47-1.82,1.2-4.27,.69-5.47-1.13Z"/><path d="M267.71,270.93c-1.2-1.82-.69-4.27,1.13-5.47,1.82-1.2,4.27-.69,5.47,1.13,1.2,1.82,.69,4.27-1.13,5.47-1.82,1.2-4.27,.69-5.47-1.13Z"/></g><g><path class="cls-3" d="M288.15,288l.1-.03,45.01-11.33-85.28,52.48,40.18-41.13Zm40.71-9.5l-40.33,10.15-35.92,36.77,76.25-46.93Z"/><path class="cls-3" d="M186.08,329.77l49.01-10.21,16.66,8.01-65.58,2.92-.09-.72Zm48.91-9.45l-44.36,9.24,58.2-2.59-13.84-6.65Z"/><path class="cls-3" d="M371.67,193.92l-40.89,85.05-2.33-34.8,.1-.11,43.12-50.14Zm-40.35,82.26l37.31-77.61-39.43,45.85,2.12,31.76Z"/><path class="cls-3" d="M367.87,124.71l2.7,72.81-15.16-23.03,.04-.15,12.43-49.62Zm1.88,70.24l-2.41-65.12-11.15,44.52,13.56,20.6Z"/><path class="cls-3" d="M331.93,64.95l.66-.3,35.98,63.6-18.12-10.49-18.52-52.81Zm34.69,61.34l-32.66-57.74,17.08,48.72,15.57,9.02Z"/><path class="cls-3" d="M276.96,20.04l56.32,45.14-28.57,.68-.11-.18-27.64-45.63Zm54.31,44.46l-51.57-41.33,25.4,41.95,26.16-.62Z"/><path class="cls-3" d="M211.51,4.59l68.55,17.06-35.91,6.57-.13-.09L211.51,4.59Zm65.11,16.95l-61.65-15.35,29.35,21.26,32.3-5.91Z"/><path class="cls-3" d="M110.11,39.89l-7.78,41.3-.15,.08-42.44,23.14L110.11,39.89Zm-8.43,40.83l7.16-38.03-46.38,59.41,39.22-21.38Z"/><path class="cls-3" d="M159.11,13.27l55.97-8.52-30.34,17.52-.16-.06-25.47-8.94Zm52.27-7.23l-49.28,7.51,22.57,7.92,26.72-15.42Z"/><path class="cls-3" d="M107.87,41.74l54.26-29.58-23.51,27.76h-.15s-30.6,1.81-30.6,1.81Zm51.2-27.08l-48,26.17,27.21-1.61,20.79-24.56Z"/><path class="cls-3" d="M230.48,292.22l59.36-4.37-55.09,32.68-4.27-28.31Zm56.34-3.42l-55.51,4.09,4,26.47,51.51-30.56Z"/><path class="cls-3" d="M285.11,267.99l.22-.12,45.28-24.97-42.52,46.24-2.98-21.14Zm41.95-22.31l-41.16,22.7,2.69,19.13,38.47-41.83Z"/><path class="cls-3" d="M356.62,173.28l-27.7,71.78-21.66-31.55,.26-.21,49.11-40.02Zm-27.88,70.24l26.22-67.95-46.73,38.09,20.51,29.86Z"/><path class="cls-3" d="M350.98,115.98l5.22,58.93-26.08-6.82,20.86-52.11Zm4.4,57.97l-4.86-54.88-19.42,48.53,24.28,6.35Z"/><path class="cls-3" d="M250.81,216.15l.63-.03,56.86-2.93-.22,.53-22.5,55.24-34.77-52.81Zm56.39-2.18l-55.09,2.84,33.32,50.6,21.77-53.44Z"/><path class="cls-3" d="M251.32,215.61l34.72,52.73-55.69,24.85,.2-.74,20.77-76.85Zm33.65,52.42l-33.37-50.68-20.15,74.56,53.51-23.88Z"/><path class="cls-3" d="M167.66,306.44l63.54-14.32,.06,.38,4.21,27.9-.51-.1-67.3-13.86Zm62.94-13.44l-59.49,13.41,63.49,13.08-4-26.49Z"/><path class="cls-3" d="M250.06,216.92l81.45-50.05-23.53,47.07h-.21s-57.71,2.98-57.71,2.98Zm79.66-48.1l-76.86,47.23,54.66-2.81,22.2-44.42Z"/><path class="cls-3" d="M285.63,103.74l65.63,13.52-20.55,51.35-.38-.55-44.69-64.31Zm64.63,14.05l-63-12.97,43.27,62.27,19.73-49.29Z"/><path class="cls-3" d="M304.82,64.83l46.93,53.27-65.83-13.56,18.9-39.71Zm44.95,52.12l-44.77-50.81-18.03,37.88,62.8,12.93Z"/><path class="cls-3" d="M243.24,26.8l62.14,38.54-.14,.29-18.77,39.43-.34-.62L243.24,26.8Zm61.2,38.82l-59.23-36.74,41.21,74.6,18.02-37.86Z"/><path class="cls-3" d="M184.35,21.47l.39,.04,60.36,6.06-62.46,54.13,.02-.82,1.69-59.4Zm59,6.65l-58.3-5.85-1.65,57.8,59.94-51.94Z"/><path class="cls-3" d="M137.78,39.45l47.3-18.11-1.72,60.35-45.58-42.24Zm46.54-17.05l-45.19,17.31,43.55,40.36,1.64-57.67Z"/></g><path class="cls-3" d="M303.84,217c-1.51-2.3-.88-5.38,1.42-6.9,2.3-1.51,5.38-.88,6.9,1.42,1.51,2.3,.88,5.38-1.42,6.9-2.3,1.51-5.39,.88-6.9-1.42Z"/><path class="cls-3" d="M324.94,246.17c-1.2-1.82-.69-4.27,1.13-5.47,1.82-1.2,4.27-.69,5.47,1.13,1.2,1.82,.69,4.27-1.13,5.47-1.82,1.2-4.27,.69-5.47-1.13Z"/><g class="cls-3"><path d="M326.66,170.17c-1.51-2.3-.88-5.39,1.42-6.9,2.3-1.51,5.38-.88,6.9,1.42,1.51,2.3,.88,5.39-1.42,6.9-2.3,1.51-5.39,.88-6.9-1.42Z"/></g><g class="cls-3"><path d="M281.28,270.27c-1.51-2.3-.88-5.39,1.42-6.9,2.3-1.51,5.39-.88,6.9,1.42,1.51,2.3,.88,5.38-1.42,6.9-2.3,1.51-5.39,.88-6.9-1.42Z"/></g><g class="cls-3"><path d="M285.16,290.25c-1.2-1.82-.69-4.27,1.13-5.47,1.82-1.2,4.27-.69,5.47,1.13,1.2,1.82,.69,4.27-1.13,5.47-1.82,1.2-4.27,.69-5.47-1.13Z"/></g><g class="cls-3"><path d="M328.12,279.18c-1.2-1.82-.69-4.27,1.13-5.47,1.82-1.2,4.27-.69,5.47,1.13,1.2,1.82,.69,4.27-1.13,5.47-1.82,1.2-4.27,.69-5.47-1.13Z"/></g><g class="cls-3"><path d="M366.5,197.61c-1.2-1.82-.69-4.27,1.13-5.47,1.82-1.2,4.27-.69,5.47,1.13,1.2,1.82,.69,4.27-1.13,5.47-1.82,1.2-4.27,.69-5.47-1.13Z"/></g><g class="cls-3"><path d="M351.27,176.5c-1.2-1.82-.69-4.27,1.13-5.47,1.82-1.2,4.27-.69,5.47,1.13,1.2,1.82,.69,4.27-1.13,5.47s-4.27,.69-5.47-1.13Z"/></g><g class="cls-3"><path d="M346.53,120c-1.2-1.82-.69-4.27,1.13-5.47,1.82-1.2,4.27-.69,5.47,1.13,1.2,1.82,.69,4.27-1.13,5.47-1.82,1.2-4.27,.69-5.47-1.13Z"/></g><g class="cls-3"><path d="M275.11,24.6c-1.2-1.82-.69-4.27,1.13-5.47,1.82-1.2,4.27-.69,5.47,1.13,1.2,1.82,.69,4.27-1.13,5.47-1.82,1.2-4.27,.69-5.47-1.13Z"/></g><g class="cls-3"><path d="M210.61,6.12c-1.2-1.82-.69-4.27,1.13-5.47,1.82-1.2,4.27-.69,5.47,1.13,1.2,1.82,.69,4.27-1.13,5.47-1.82,1.2-4.27,.69-5.47-1.13Z"/></g><g class="cls-3"><path d="M364.12,129.61c-1.2-1.82-.69-4.27,1.13-5.47,1.82-1.2,4.27-.69,5.47,1.13,1.2,1.82,.69,4.27-1.13,5.47-1.82,1.2-4.27,.69-5.47-1.13Z"/></g><g class="cls-3"><path d="M328.89,66.03c-1.2-1.82-.69-4.27,1.13-5.47,1.82-1.2,4.27-.69,5.47,1.13,1.2,1.82,.69,4.27-1.13,5.47-1.82,1.2-4.27,.69-5.47-1.13Z"/></g><g class="cls-3"><path d="M302.08,68.45c-1.51-2.3-.88-5.38,1.42-6.9,2.3-1.51,5.39-.88,6.9,1.42,1.51,2.3,.88,5.38-1.42,6.9-2.3,1.51-5.38,.88-6.9-1.42Z"/></g><g class="cls-3"><path d="M240.76,30.65c-1.51-2.3-.88-5.38,1.42-6.9,2.3-1.51,5.38-.88,6.9,1.42,1.51,2.3,.88,5.39-1.42,6.9-2.3,1.51-5.38,.88-6.9-1.42Z"/></g><g class="cls-3"><path d="M246.71,219.51c-2.14-3.25-1.24-7.62,2.01-9.75,3.25-2.14,7.62-1.24,9.75,2.01,2.14,3.25,1.24,7.62-2.01,9.75-3.25,2.14-7.62,1.24-9.75-2.01Z"/></g><g class="cls-3"><path d="M280.96,107.53c-2.14-3.25-1.24-7.62,2.01-9.75,3.25-2.14,7.62-1.24,9.75,2.01,2.14,3.25,1.24,7.62-2.01,9.75-3.25,2.14-7.62,1.24-9.75-2.01Z"/></g></g></g><rect class="cls-2" width="373.74" height="333.14"/></g></g></svg>